<?xml version="1.0" encoding="utf-8"?>
<!-- Generator: Adobe Illustrator 16.0.0, SVG Export Plug-In . SVG Version: 6.00 Build 0)  -->
<!DOCTYPE svg PUBLIC "-//W3C//DTD SVG 1.1//EN" "http://www.w3.org/Graphics/SVG/1.1/DTD/svg11.dtd">
<svg version="1.1"
	 id="svg" xmlns:dc="http://purl.org/dc/elements/1.1/" xmlns:cc="http://creativecommons.org/ns#" xmlns:rdf="http://www.w3.org/1999/02/22-rdf-syntax-ns#" xmlns:svg="http://www.w3.org/2000/svg" xmlns:sodipodi="http://sodipodi.sourceforge.net/DTD/sodipodi-0.dtd" xmlns:inkscape="http://www.inkscape.org/namespaces/inkscape" inkscape:version="0.92.2 (5c3e80d, 2017-08-06)" sodipodi:docname="picpay-logo.svg"
	 xmlns="http://www.w3.org/2000/svg" xmlns:xlink="http://www.w3.org/1999/xlink" x="0px" y="0px" width="124px" height="40px"
	 viewBox="0 0 124 40" enable-background="new 0 0 124 40" xml:space="preserve">
<sodipodi:namedview  inkscape:cy="159.88914" inkscape:cx="156.89073" inkscape:zoom="1.737619" fit-margin-left="0" fit-margin-top="0" showgrid="false" guidetolerance="10" gridtolerance="10" objecttolerance="10" borderopacity="1" pagecolor="#ffffff" bordercolor="#666666" id="namedview5" inkscape:current-layer="svg" inkscape:window-maximized="1" inkscape:window-y="-8" inkscape:window-x="-8" fit-margin-bottom="0" fit-margin-right="0" inkscape:window-height="837" inkscape:window-width="1600" inkscape:pageshadow="2" inkscape:pageopacity="0">
	</sodipodi:namedview>
<path id="path2-5-0" inkscape:export-ydpi="27.367397" inkscape:export-xdpi="27.367397" inkscape:export-filename="C:\Users\suitedoalex\sites\picpay-logo-15.png" inkscape:connector-curvature="0" fill="#FFFFFF" d="
	M25.501,32.301h5.801V15.401h-5.801V32.301z M33.301,3.9h-3.899v3.898h3.899V3.9z M11.402,5.801H5.801V10.7H11
	c3.301,0,5.2,1.601,5.2,4.601S14.301,20,11,20H5.801v-9.199H0v21.5h5.801v-7.398h5.5c6.699,0,10.601-3.602,10.601-9.803
	C21.902,9.301,18.101,5.801,11.402,5.801z M37.202,0h-11.7v11.7h11.7V0z M35.301,9.7H27.5V1.9h7.801V9.7z M69.3,5.801H64V10.7h5
	c3.301,0,5.2,1.601,5.2,4.601S72.3,20,69,20h-5v-9.199h-5.8v21.5H64v-7.398H69.3c6.699,0,10.602-3.602,10.602-9.803
	C79.902,9.301,76.001,5.801,69.3,5.801z M118.001,12l-5,12.6l-5-12.6h-6l8,20.301l-3.1,7.699h6.1l11-28H118.001L118.001,12z
	 M92.001,11.901c-3.5,0-6.199,0.8-9.199,2.3l1.801,4c2.101-1.199,4.199-1.8,6.101-1.8c2.8,0,4.2,1.198,4.2,3.397v0.4h-5.602
	c-5,0-7.699,2.3-7.699,6.1c0,3.7,2.601,6.301,7,6.301c2.801,0,4.801-1,6.398-2.698V32.1h5.7V18.901
	C100.501,14.6,97.402,11.901,92.001,11.901z M95.402,25.5c-0.602,1.7-2.301,3.1-4.7,3.1c-2,0-3.2-1-3.2-2.6s1.102-2.3,3.301-2.3
	h4.602L95.402,25.5L95.402,25.5z M46.101,27.901c-2.801,0-4.801-2.2-4.801-5.5c0-3.2,2-5.4,4.801-5.4c2,0,3.5,0.8,4.601,2.2
	l3.899-2.8C52.8,13.701,49.702,12.1,45.8,12.1C39.7,11.999,35.5,16.201,35.5,22.401c0,6.198,4.2,10.3,10.301,10.3
	c4.199,0,7.301-1.7,9-4.5l-4-2.7C49.8,27.1,48.202,27.901,46.101,27.901z"/>
</svg>
