<svg xmlns="http://www.w3.org/2000/svg" width="42" height="43.428"><path d="M12.36 19.049h3.745v12.099H12.36zm1.855-1.584a2.224 2.224 0 0 0 2.214-2.233A2.223 2.223 0 0 0 14.215 13 2.223 2.223 0 0 0 12 15.232a2.224 2.224 0 0 0 2.215 2.233zm7.877 7.332c0-1.7.783-2.714 2.282-2.714 1.377 0 2.039.973 2.039 2.714v6.352h3.728v-7.661c0-3.241-1.837-4.808-4.4-4.808a4.219 4.219 0 0 0-3.646 2v-1.63h-3.593v12.1h3.593z" style="fill:#eeefe7"></path><ellipse cx="20" cy="20.714" rx="20" ry="20.714" style="fill:none;stroke:#eeefe7;stroke-miterlimit:10;stroke-width:2px" transform="translate(1 1)"></ellipse></svg>