<svg xmlns="http://www.w3.org/2000/svg" viewBox="0 0 318.8 46.1"><path fill="#EFF0E8" d="M190.7 11.3h-3.6V10h8.7v1.3h-3.6v9.2h-1.5v-9.2zm4.9 5.2c0-2.4 1.8-4 4.1-4 2.4 0 4.1 1.7 4.1 4s-1.7 4.1-4.1 4.1a4 4 0 0 1-4.1-4.1zm6.8 0c0-1.7-1.1-2.8-2.7-2.8-1.5 0-2.7 1.1-2.7 2.8 0 1.7 1.2 2.8 2.7 2.8 1.6 0 2.7-1.1 2.7-2.8zm11-7.1v11.1H212v-1.3c-.6.9-1.7 1.3-2.8 1.3-2.3 0-4-1.6-4-4.1s1.7-4 4-4c1.1 0 2.1.4 2.8 1.3V9.4h1.4zm-1.5 7.1c0-1.7-1.2-2.8-2.7-2.8-1.5 0-2.7 1.1-2.7 2.8 0 1.7 1.2 2.8 2.7 2.8 1.6 0 2.7-1.1 2.7-2.8zm3.5 0c0-2.4 1.8-4 4.1-4 2.4 0 4.1 1.7 4.1 4s-1.7 4.1-4.1 4.1c-2.4 0-4.1-1.7-4.1-4.1zm6.8 0c0-1.7-1.1-2.8-2.7-2.8-1.5 0-2.7 1.1-2.7 2.8 0 1.7 1.2 2.8 2.7 2.8 1.5 0 2.7-1.1 2.7-2.8zm20.7-.6v4.6h-1.4v-4.4c0-1.6-.8-2.3-2.1-2.3-1.4 0-2.4.9-2.4 2.6v4.1h-1.4v-4.4c0-1.6-.8-2.3-2.1-2.3-1.4 0-2.4.9-2.4 2.6v4.1h-1.4v-7.9h1.4v1.2c.6-.8 1.5-1.3 2.7-1.3 1.2 0 2.2.5 2.8 1.5.6-.9 1.7-1.5 3.1-1.5 1.8 0 3.2 1.1 3.2 3.4zm10-3.3v7.9h-1.4v-1.2c-.6.8-1.6 1.3-2.7 1.3-2.1 0-3.4-1.1-3.4-3.5v-4.6h1.4V17c0 1.6.8 2.3 2.1 2.3 1.5 0 2.5-.9 2.5-2.6v-4.1h1.5zm10.3 3.3v4.6h-1.4v-4.4c0-1.6-.8-2.3-2.1-2.3-1.5 0-2.5.9-2.5 2.6v4.1h-1.4v-7.9h1.4v1.2c.6-.8 1.6-1.3 2.9-1.3 1.7 0 3.1 1.1 3.1 3.4zm10.2-6.5v11.1H272v-1.3c-.6.9-1.7 1.3-2.8 1.3-2.3 0-4-1.6-4-4.1s1.7-4 4-4c1.1 0 2.1.4 2.8 1.3V9.4h1.4zm-1.4 7.1c0-1.7-1.2-2.8-2.7-2.8-1.5 0-2.7 1.1-2.7 2.8 0 1.7 1.2 2.8 2.7 2.8 1.5 0 2.7-1.1 2.7-2.8zm3.4 0c0-2.4 1.8-4 4.1-4s4.1 1.7 4.1 4-1.7 4.1-4.1 4.1-4.1-1.7-4.1-4.1zm6.8 0c0-1.7-1.1-2.8-2.7-2.8s-2.7 1.1-2.7 2.8c0 1.7 1.2 2.8 2.7 2.8s2.7-1.1 2.7-2.8zm14.9-3.9v7.9h-1.4v-1.2c-.6.8-1.6 1.3-2.7 1.3-2.1 0-3.4-1.1-3.4-3.5v-4.6h1.4V17c0 1.6.8 2.3 2.1 2.3 1.5 0 2.5-.9 2.5-2.6v-4.1h1.5zm1.8 7.1.6-1.1c.7.5 1.8.8 2.8.8 1.3 0 1.9-.4 1.9-1.1 0-1.8-5-.2-5-3.4 0-1.4 1.3-2.4 3.3-2.4 1 0 2.2.3 2.9.7l-.6 1.1c-.7-.5-1.5-.6-2.3-.6-1.3 0-1.9.5-1.9 1.1 0 1.9 5 .3 5 3.4 0 1.4-1.3 2.4-3.4 2.4-1.4 0-2.7-.4-3.3-.9zm14.8-4v4.8h-1.4v-1c-.5.7-1.4 1.1-2.6 1.1-1.8 0-2.9-1-2.9-2.3 0-1.3.8-2.3 3.2-2.3h2.3v-.3c0-1.2-.7-1.9-2.1-1.9-.9 0-1.9.3-2.5.9l-.6-1.1c.8-.7 2-1 3.3-1 2.1-.1 3.3.9 3.3 3.1zm-1.5 2.4V17H310c-1.4 0-1.8.6-1.8 1.2 0 .8.7 1.3 1.8 1.3 1 0 1.9-.5 2.2-1.4zm5.5 1.5c0 .3-.1.5-.3 1.1l-.7 2.1h-.9l.6-2.2c-.4-.1-.6-.5-.6-.9 0-.6.4-1 1-1 .5-.2.9.3.9.9zM192.8 37c-.4.4-1.1.6-1.7.6-1.6 0-2.5-.9-2.5-2.5v-4.4h-1.3v-1.2h1.3v-1.7h1.4v1.7h2.3v1.2H190V35c0 .9.5 1.3 1.2 1.3.4 0 .8-.1 1.1-.4l.5 1.1zm.8-3.5c0-2.4 1.8-4 4.1-4 2.4 0 4.1 1.7 4.1 4s-1.7 4.1-4.1 4.1c-2.4 0-4.1-1.7-4.1-4.1zm6.8 0c0-1.7-1.1-2.8-2.7-2.8-1.5 0-2.7 1.1-2.7 2.8 0 1.7 1.2 2.8 2.7 2.8 1.5 0 2.7-1.1 2.7-2.8zm10.9-7.1v11.1h-1.4v-1.3c-.6.9-1.7 1.3-2.8 1.3-2.3 0-4-1.6-4-4.1s1.7-4 4-4c1.1 0 2.1.4 2.8 1.3v-4.4h1.4zm-1.4 7.1c0-1.7-1.2-2.8-2.7-2.8-1.5 0-2.7 1.1-2.7 2.8 0 1.7 1.2 2.8 2.7 2.8 1.5 0 2.7-1.1 2.7-2.8zm3.4 0c0-2.4 1.8-4 4.1-4 2.4 0 4.1 1.7 4.1 4s-1.7 4.1-4.1 4.1a4 4 0 0 1-4.1-4.1zm6.8 0c0-1.7-1.1-2.8-2.7-2.8-1.5 0-2.7 1.1-2.7 2.8 0 1.7 1.2 2.8 2.7 2.8 1.6 0 2.7-1.1 2.7-2.8zm7.5-7.1h1.4v11.1h-1.4V26.4zm11.6 3.2v7.9h-1.4v-1.2c-.6.8-1.6 1.3-2.7 1.3-2.1 0-3.4-1.1-3.4-3.5v-4.6h1.4V34c0 1.6.8 2.3 2.1 2.3 1.5 0 2.5-.9 2.5-2.6v-4.1h1.5zm10.4 0v6.9c0 2.8-1.4 4.1-4.1 4.1-1.5 0-2.9-.4-3.8-1.2l.7-1.1a5 5 0 0 0 3.1 1c1.9 0 2.7-.9 2.7-2.7V36c-.7.8-1.7 1.2-2.9 1.2-2.3 0-4-1.6-4-3.9s1.7-3.8 4-3.8c1.2 0 2.3.4 2.9 1.3v-1.2h1.4zm-1.4 3.7c0-1.5-1.1-2.6-2.7-2.6s-2.7 1-2.7 2.6c0 1.5 1.1 2.6 2.7 2.6 1.5 0 2.7-1.1 2.7-2.6zm10.4-.6v4.8h-1.4v-1c-.5.7-1.4 1.1-2.6 1.1-1.8 0-2.9-1-2.9-2.3 0-1.3.8-2.3 3.2-2.3h2.3v-.3c0-1.2-.7-1.9-2.1-1.9-.9 0-1.9.3-2.5.9l-.6-1.1c.8-.7 2-1 3.3-1 2.1-.1 3.3.9 3.3 3.1zm-1.4 2.4V34H255c-1.4 0-1.8.6-1.8 1.2 0 .8.7 1.3 1.8 1.3 1 0 1.8-.5 2.2-1.4zm8.4-5.6v1.4h-.3c-1.5 0-2.5.9-2.5 2.7v4h-1.4v-7.9h1.4V31c.4-1 1.4-1.5 2.8-1.5zm12.2 3.2v4.8h-1.4v-1c-.5.7-1.4 1.1-2.6 1.1-1.8 0-2.9-1-2.9-2.3 0-1.3.8-2.3 3.2-2.3h2.3v-.3c0-1.2-.7-1.9-2.1-1.9-.9 0-1.9.3-2.5.9l-.6-1.1c.8-.7 2-1 3.3-1 2-.1 3.3.9 3.3 3.1zm-1.5 2.4V34h-2.2c-1.4 0-1.8.6-1.8 1.2 0 .8.7 1.3 1.8 1.3 1 0 1.9-.5 2.2-1.4zm3.4-1.6c0-2.4 1.8-4 4.2-4 1.4 0 2.6.6 3.2 1.7l-1.1.7c-.5-.8-1.3-1.1-2.2-1.1-1.6 0-2.7 1.1-2.7 2.8 0 1.7 1.2 2.8 2.7 2.8.9 0 1.7-.4 2.2-1.1l1.1.7c-.6 1.1-1.8 1.7-3.2 1.7-2.4-.1-4.2-1.8-4.2-4.2zm16.4.5h-6.5c.2 1.4 1.3 2.3 2.9 2.3.9 0 1.7-.3 2.3-1l.8.9c-.7.8-1.8 1.3-3.1 1.3-2.6 0-4.3-1.7-4.3-4.1 0-2.4 1.7-4 4-4s3.9 1.6 3.9 4.1v.5zm-6.5-1h5.1a2.6 2.6 0 0 0-2.6-2.3c-1.3 0-2.3.9-2.5 2.3zm8.2-5.9c0-.5.4-.9 1-.9s1 .4 1 .9-.4 1-1 1c-.5-.1-1-.5-1-1zm.3 2.5h1.4v7.9h-1.4v-7.9zm8.7 7.4c-.4.4-1.1.6-1.7.6-1.6 0-2.5-.9-2.5-2.5v-4.4h-1.3v-1.2h1.3v-1.7h1.4v1.7h2.3v1.2H304V35c0 .9.5 1.3 1.2 1.3.4 0 .8-.1 1.1-.4l.5 1.1zm8-4.3v4.8h-1.4v-1c-.5.7-1.4 1.1-2.6 1.1-1.8 0-2.9-1-2.9-2.3 0-1.3.8-2.3 3.2-2.3h2.3v-.3c0-1.2-.7-1.9-2.1-1.9-.9 0-1.9.3-2.5.9l-.6-1.1c.8-.7 2-1 3.3-1 2.1-.1 3.3.9 3.3 3.1zm-1.4 2.4V34h-2.2c-1.4 0-1.8.6-1.8 1.2 0 .8.7 1.3 1.8 1.3.9 0 1.8-.5 2.2-1.4zm3.4 1.5a1 1 0 0 1 2 0 1 1 0 0 1-2 0zm-287.6.7V17.9h6.7v19.4h-6.7zm9-32.5v4.5h-4.5V4.8h4.5zM13 7c7.7 0 12.1 3.9 12.1 10.6 0 7-4.4 11.2-12.1 11.2H6.7v8.5H0V12.7h6.7v10.6h6c3.8 0 6-1.9 6-5.4 0-3.4-2.2-5.2-6-5.2h-6V7H13zM42.6.3v13.4H29.2V.3h13.4zm-2.2 11.2V2.6h-8.9v8.9h8.9zm39-4.5c7.7 0 12.1 3.9 12.1 10.6 0 7-4.4 11.2-12.1 11.2h-6.1v8.5h-6.7V12.7h6.7v10.6H79c3.8 0 6-1.9 6-5.4 0-3.4-2.2-5.2-6-5.2h-5.8V7h6.2zm55.8 7.1h6.8l-12.5 32.1h-7l3.5-8.9-9.1-23.2h6.9l5.7 14.4 5.7-14.4zm-29.9-.1c6.2 0 9.8 3 9.9 8.3v15.1h-6.5v-2.5a8.87 8.87 0 0 1-7.3 3c-5 0-8-3-8-7.3 0-4.4 3.2-7 8.9-7h6.4v-.5c0-2.5-1.7-3.9-4.9-3.9-2.4.1-4.8.8-6.9 2l-2.1-4.6c3.2-1.7 6.8-2.6 10.5-2.6zm3.9 15.6v-2.1h-5.3c-2.6 0-3.8.8-3.8 2.6s1.4 2.9 3.6 2.9c2.5.2 4.7-1.2 5.5-3.4zm-56.4 2.6c2.2.1 4.2-.9 5.4-2.7l4.6 3.1c-1.9 3.2-5.6 5.1-10.3 5.1-7 0-11.8-4.8-11.8-11.8 0-7.1 4.8-11.9 11.9-11.9 4.5 0 8 1.8 10.1 4.9l-4.5 3.2a6.88 6.88 0 0 0-5.3-2.5c-3.2 0-5.5 2.5-5.5 6.2-.1 3.9 2.2 6.4 5.4 6.4zM167 46V0h-1v46h1z"/></svg>