<svg xmlns="http://www.w3.org/2000/svg" viewBox="0 0 42.1 43.5" style="enable-background:new 0 0 42.1 43.5" xml:space="preserve"><ellipse transform="translate(-.043 .042)" cx="21" cy="21.8" rx="20" ry="20.7" style="fill:none;stroke:#eeefe7;stroke-width:2;stroke-miterlimit:10"></ellipse><path d="M31.5 16.1c-1.3 0-2.5-.4-3.5-1.2-1.1-.8-1.9-2.1-2.2-3.5-.1-.3-.1-.7-.1-1.1H22v15.8c0 1.5-1 2.8-2.3 3.2-.4.1-.8.2-1.3.2-.6 0-1.1-.2-1.5-.5-1-.6-1.6-1.6-1.6-2.8 0-1.9 1.5-3.4 3.4-3.4.4 0 .7.1 1.1.2v-3.8c-.5-.1-.8-.2-1.2-.2-2.1 0-4 .9-5.4 2.4-1 1.2-1.7 2.7-1.8 4.2-.1 2 .6 4 2.1 5.4.2.2.4.4.7.6 1.2 1 2.8 1.5 4.4 1.5.4 0 .7 0 1.1-.1 1.5-.2 2.9-.9 4-2 1.3-1.3 2.1-3.1 2.1-5v-8.3c.6.5 1.3.9 2.1 1.2 1.2.5 2.4.7 3.7.7v-2.7l-.1-.8z" style="fill:#eeefe7"></path></svg>