<svg xmlns="http://www.w3.org/2000/svg" viewBox="0 0 42 43.4" style="enable-background:new 0 0 42 43.4" xml:space="preserve"><ellipse cx="20" cy="20.7" rx="20" ry="20.7" style="fill:none;stroke:#eeefe7;stroke-width:2;stroke-miterlimit:10" transform="translate(1 1)"></ellipse><path d="M33.1 15.6c-.3-1-1.1-1.9-2.3-2.3-1.9-.5-9.8-.5-9.8-.5s-7.9 0-9.9.5c-1 .3-1.9 1.1-2.3 2.3-.5 2-.5 6.1-.5 6.1s0 4.1.5 6.1c.3 1 1.1 1.9 2.3 2.3 2 .5 9.9.5 9.9.5s7.9 0 9.9-.5c1-.3 1.9-1.1 2.3-2.3.5-2 .5-6.1.5-6.1s0-4.1-.6-6.1z" style="fill:#eeefe7"></path><path style="fill:#50d67b" d="M18.5 17.9v7.6l6.6-3.8z"></path></svg>