<svg xmlns="http://www.w3.org/2000/svg" data-name="Layer 1" viewBox="0 0 64 64"><circle cx="32" cy="32" r="27" fill="#39b54a"/><path fill="#2b3940" d="M48.75,53.16a26.94,26.94,0,0,1-33.5,0L16,50.5A9.12,9.12,0,0,1,24.79,44H39.21A9.12,9.12,0,0,1,48,50.5Z"/><path fill="#ffd2b4" d="M36,39.94v5.47a.94.94,0,0,1-.52.84l-3.06,1.53a.94.94,0,0,1-.84,0l-3.06-1.53a.94.94,0,0,1-.52-.84V39.94a.94.94,0,0,1,.94-.94h6.11A.94.94,0,0,1,36,39.94Z"/><path fill="#fff" d="M36,44v1.42a.94.94,0,0,1-.52.84l-3.06,1.53a.93.93,0,0,1-.84,0l-3.06-1.53a.94.94,0,0,1-.52-.84V44H26v1.42A2.92,2.92,0,0,0,27.63,48l3,1.53a3,3,0,0,0,2.64,0l3-1.53A2.92,2.92,0,0,0,38,45.42V44Z" opacity=".1"/><path fill="#ffd2b4" d="M32,15.21C43.45,15.21,42.47,26,42.47,26c1.68-.17,3,.49,3,2.86s-1,2.86-2.35,3a.29.29,0,0,0-.27.27c-.39,3.69-1.09,9.71-10.86,9.71s-10.47-6-10.86-9.71a.29.29,0,0,0-.27-.27c-1.31-.13-2.35-.63-2.35-3s1.27-3,2.94-2.86C21.47,26,20.54,15.21,32,15.21Z"/><path fill="#262234" d="M36,41.41v1.67a17.23,17.23,0,0,1-4,.42,17.23,17.23,0,0,1-4-.42V41.41a17.23,17.23,0,0,0,4,.42A17.23,17.23,0,0,0,36,41.41Z" opacity=".1"/><circle cx="28.04" cy="28.15" r="1.7" fill="#262234"/><path fill="#262234" d="M43.5,20.2a8.79,8.79,0,0,0-.67-3A11.29,11.29,0,0,0,42.56,13a.77.77,0,0,0-1.07-.45,16.84,16.84,0,0,1-2.94,1.1,6.12,6.12,0,0,0-.8-2.26.79.79,0,0,0-1.22-.09,18,18,0,0,1-2.36,2.08,7,7,0,0,0-1.52-2.78.79.79,0,0,0-1.21.17,18,18,0,0,1-1.89,2.55,7.21,7.21,0,0,0-2.71-2.43.7.7,0,0,0-.95.55,15.62,15.62,0,0,1-.63,2.52,7,7,0,0,0-3.18-1.34.7.7,0,0,0-.72.82,16.44,16.44,0,0,1,.21,3A7.62,7.62,0,0,0,20.5,20.2a30.26,30.26,0,0,0,.14,5.53A21.53,21.53,0,0,0,21,28.47c.18.72,2.07.69,2.19,0s-.33-4.16,1.37-7.38A20.51,20.51,0,0,0,32,22.35a20.53,20.53,0,0,0,7.48-1.21c1.7,3.22,1.28,6.83,1.37,7.38s2,.67,2.19,0A19.16,19.16,0,0,0,43.32,26,30.77,30.77,0,0,0,43.5,20.2Z"/><path fill="#611c24" d="M35.87,32.53a1,1,0,0,1,1,1.25,5,5,0,0,1-9.68,0,1,1,0,0,1,1-1.25Z"/><path fill="#be1e2d" d="M34.42,36.91a5,5,0,0,1-4.84,0c.2-1.23,1.21-1.57,2.42-1.57S34.22,35.68,34.42,36.91Z"/><path fill="#fff" d="M34.87,32.53v.95a.37.37,0,0,1-.36.37h-5a.37.37,0,0,1-.36-.37v-.95Z"/><path fill="#262234" d="M36,30.13a.8.8,0,0,1-.39-.1l-2.15-1.19a.8.8,0,0,1,0-1.4l2.15-1.19a.8.8,0,1,1,.78,1.4l-.88.49.88.49a.8.8,0,0,1-.39,1.5Z"/></svg>