<svg xmlns="http://www.w3.org/2000/svg" data-name="Layer 1" viewBox="0 0 64 64"><circle cx="32" cy="32" r="27" fill="#39b54a"/><path fill="#2a292a" d="M48.75,53.16a26.94,26.94,0,0,1-33.5,0L16,50.5A9.12,9.12,0,0,1,24.79,44H39.21A9.12,9.12,0,0,1,48,50.5Z"/><path fill="#ffd2b4" d="M36,39v5.76a2,2,0,0,1-1.11,1.8h0a6.46,6.46,0,0,1-5.78,0h0A2,2,0,0,1,28,44.76V39Z"/><path fill="#ffd2b4" d="M32,15.21C43.45,15.21,42.47,26,42.47,26c1.68-.17,3,.49,3,2.86s-1,2.86-2.35,3a.29.29,0,0,0-.27.27c-.39,3.69-3,6.39-5.58,8.2a9.16,9.16,0,0,1-10.56,0c-2.57-1.81-5.19-4.52-5.58-8.2a.29.29,0,0,0-.27-.27c-1.31-.13-2.35-.63-2.35-3s1.27-3,2.94-2.86C21.47,26,20.54,15.21,32,15.21Z"/><path fill="#262234" d="M36,41.08v1.5a9.16,9.16,0,0,1-8,0v-1.5a9.16,9.16,0,0,0,8,0Z" opacity=".1"/><circle cx="28.04" cy="28.15" r="1.7" fill="#2a292a"/><circle cx="35.96" cy="28.15" r="1.7" fill="#2a292a"/><path fill="#2a292a" d="M32 13.63c-8.83 0-11.31 6.71-11.31 12.72A9.56 9.56 0 0 0 21 28.47c.18.72 2.07.69 2.19 0a16.75 16.75 0 0 1 1.11-6.85 1.07 1.07 0 0 1 .06-.09 12.65 12.65 0 0 0 4.29 2.77.38.38 0 0 0 .51-.47 17.69 17.69 0 0 1-.49-1.75 12.45 12.45 0 0 0 4.55 2.67.38.38 0 0 0 .49-.5c-.15-.39-.34-.89-.5-1.44a11.91 11.91 0 0 0 5.27 2 .38.38 0 0 0 .39-.58 16.91 16.91 0 0 1-1-1.83 13.24 13.24 0 0 0 2.54.86 20.68 20.68 0 0 1 .51 5.18c.11.64 2 .67 2.19 0a9.56 9.56 0 0 0 .26-2.12C43.31 20.33 40.84 13.63 32 13.63zM37.55 34a16.13 16.13 0 0 1-3.76-1.53 1.48 1.48 0 0 0-1.67.14 1.48 1.48 0 0 0-1.67-.14A16.13 16.13 0 0 1 26.7 34a.49.49 0 0 0-.09.93 7.57 7.57 0 0 0 3.84.69 2.22 2.22 0 0 0 1.68-.86 2.22 2.22 0 0 0 1.68.86A7.57 7.57 0 0 0 37.65 35 .49.49 0 0 0 37.55 34z"/><path fill="#d1d3d4" d="M35.66,51.28,35,58.83a26.9,26.9,0,0,1-6,0l-.64-7.55,3.66-4Z"/><path fill="#27aae1" d="M33.12,50.67H30.88a1,1,0,0,1-1-.72l-.79-2.71h5.73l-.79,2.71A1,1,0,0,1,33.12,50.67Z"/><path fill="#27aae1" d="M33.67,59c-.55,0-1.11,0-1.67,0s-1.12,0-1.67,0l1-9.14h1.34Z"/><polygon fill="#f1f2f2" points="32 47.24 28.34 51.28 26.18 44 28 42.12 32 47.24"/><polygon fill="#f1f2f2" points="32 47.24 35.66 51.28 37.82 44 36 42.12 32 47.24"/></svg>