<?xml version="1.0" encoding="UTF-8" standalone="no"?>
<svg
   xmlns:dc="http://purl.org/dc/elements/1.1/"
   xmlns:cc="http://creativecommons.org/ns#"
   xmlns:rdf="http://www.w3.org/1999/02/22-rdf-syntax-ns#"
   xmlns:svg="http://www.w3.org/2000/svg"
   xmlns="http://www.w3.org/2000/svg"
   xmlns:sodipodi="http://sodipodi.sourceforge.net/DTD/sodipodi-0.dtd"
   xmlns:inkscape="http://www.inkscape.org/namespaces/inkscape"
   sodipodi:docname="pay.svg"
   inkscape:version="1.0 (4035a4fb49, 2020-05-01)"
   id="svg8"
   version="1.1"
   viewBox="0 0 200 200"
   height="200mm"
   width="200mm">
  <defs
     id="defs2" />
  <sodipodi:namedview
     width="200mm"
     inkscape:window-maximized="1"
     inkscape:window-y="27"
     inkscape:window-x="0"
     inkscape:window-height="1053"
     inkscape:window-width="1920"
     showgrid="false"
     inkscape:document-rotation="0"
     inkscape:current-layer="layer1"
     inkscape:document-units="mm"
     inkscape:cy="560"
     inkscape:cx="542.85714"
     inkscape:zoom="0.35"
     inkscape:pageshadow="2"
     inkscape:pageopacity="0.0"
     borderopacity="1.0"
     bordercolor="#666666"
     pagecolor="#ffffff"
     id="base" />
  <metadata
     id="metadata5">
    <rdf:RDF>
      <cc:Work
         rdf:about="">
        <dc:format>image/svg+xml</dc:format>
        <dc:type
           rdf:resource="http://purl.org/dc/dcmitype/StillImage" />
        <dc:title></dc:title>
      </cc:Work>
    </rdf:RDF>
  </metadata>
  <g
     id="layer1"
     inkscape:groupmode="layer"
     inkscape:label="Layer 1">
    <g
       style="fill:#ccc6f6;fill-opacity:1"
       transform="matrix(0.65612752,0,0,0.65612752,30.362319,2.7180191)"
       id="g76">
      <path
         id="path90"
         d="m 39.684059,210.02115 c 0.211979,-0.0848 0.465253,-0.0744 0.562831,0.0232 0.09758,0.0976 -0.07586,0.16698 -0.385417,0.15423 -0.342086,-0.0141 -0.411668,-0.0837 -0.177414,-0.17741 z m 28.172091,0.006 c 0.201885,-0.0815 0.532242,-0.0815 0.734126,0 0.201885,0.0815 0.03671,0.14811 -0.367063,0.14811 -0.403769,0 -0.568948,-0.0666 -0.367063,-0.14811 z m -14.879577,-21.4133 c 0.01409,-0.34209 0.08367,-0.41167 0.177412,-0.17742 0.08483,0.21198 0.0744,0.46526 -0.02317,0.56284 -0.09758,0.0976 -0.166981,-0.0759 -0.154231,-0.38542 z M 31.07388,106.41631 c 3e-6,-36.339241 0.03418,-51.161679 0.07595,-32.938748 0.04177,18.222931 0.04177,47.955038 -5e-6,66.071348 -0.04177,18.11632 -0.07595,3.20665 -0.07595,-33.1326 z m -14.988252,55.49994 c 10e-5,-5.65277 0.03955,-7.92371 0.08767,-5.04653 0.04812,2.87718 0.04804,7.50217 -1.82e-4,10.27776 -0.04822,2.7756 -0.08759,0.42154 -0.08749,-5.23123 z m 168.542092,-1.98214 -0.5594,-0.66072 0.66071,0.5594 c 0.62091,0.5257 0.7944,0.76203 0.5594,0.76203 -0.0557,0 -0.35304,-0.29732 -0.66071,-0.66071 z m -82.36328,-5.72619 -0.7119,-0.80754 0.80754,0.7119 c 0.75477,0.66538 0.9422,0.90318 0.7119,0.90318 -0.0526,0 -0.41599,-0.36339 -0.80754,-0.80754 z m 72.37916,-4.55158 -0.5594,-0.66071 0.66072,0.5594 c 0.36339,0.30767 0.66071,0.60499 0.66071,0.66071 0,0.235 -0.23633,0.0615 -0.76203,-0.5594 z m -15.98185,-16.2976 -2.78388,-2.86309 2.8631,2.78388 c 1.5747,1.53113 2.86309,2.81952 2.86309,2.86309 0,0.21279 -0.35667,-0.12467 -2.94231,-2.78388 z m -63.184104,0.31329 c 0.211978,-0.0848 0.465254,-0.0744 0.562831,0.0232 0.09758,0.0976 -0.07586,0.16698 -0.385416,0.15423 -0.342088,-0.0141 -0.411669,-0.0837 -0.177415,-0.17741 z M 85.25494,105.57132 c 0,-0.061 0.231249,-0.29223 0.513888,-0.51389 0.465747,-0.36527 0.476134,-0.35488 0.110871,0.11087 -0.383617,0.48915 -0.624759,0.6447 -0.624759,0.40302 z M 43.336337,4.464011 c 0.282639,-0.073861 0.745138,-0.073861 1.027777,0 0.282638,0.073861 0.05139,0.1342931 -0.513889,0.1342931 -0.565277,0 -0.796527,-0.060432 -0.513888,-0.1342931 z m 77.982553,0.00182 c 0.21197,-0.084827 0.46525,-0.074395 0.56283,0.023183 0.0976,0.097578 -0.0759,0.1669815 -0.38542,0.1542309 -0.34209,-0.014091 -0.41167,-0.083673 -0.17741,-0.1774139 z"
         style="fill:#ccc6f6;fill-opacity:1;stroke-width:0.29365" />
      <path
         id="path88"
         d="m 168.89026,291.94963 c 0.21198,-0.0848 0.46525,-0.0744 0.56283,0.0232 0.0976,0.0976 -0.0759,0.16699 -0.38542,0.15424 -0.34208,-0.0141 -0.41166,-0.0837 -0.17741,-0.17742 z M 40.565011,210.02115 c 0.211979,-0.0848 0.465252,-0.0744 0.56283,0.0232 0.09758,0.0976 -0.07586,0.16698 -0.385416,0.15423 -0.342086,-0.0141 -0.411669,-0.0837 -0.177414,-0.17741 z m 26.428541,0 c 0.211977,-0.0848 0.465251,-0.0744 0.562831,0.0232 0.09758,0.0976 -0.07586,0.16698 -0.385416,0.15423 -0.342088,-0.0141 -0.411669,-0.0837 -0.177415,-0.17741 z M 16.085445,182.0313 c 0,-5.57201 0.03949,-7.85148 0.08775,-5.06547 0.04826,2.78601 0.04826,7.34493 0,10.13094 -0.04826,2.78601 -0.08775,0.50655 -0.08775,-5.06547 z m 179.943845,-2.05555 c 0,-0.56528 0.0604,-0.79653 0.13429,-0.51389 0.0739,0.28264 0.0739,0.74514 0,1.02778 -0.0739,0.28264 -0.13429,0.0514 -0.13429,-0.51389 z m -3.17936,-11.52578 -0.5594,-0.66071 0.66071,0.5594 c 0.62091,0.5257 0.7944,0.76202 0.55941,0.76202 -0.0557,0 -0.35305,-0.29732 -0.66072,-0.66071 z m -9.25955,-9.54364 c -0.36526,-0.46575 -0.35487,-0.47613 0.11088,-0.11087 0.28263,0.22166 0.51388,0.45291 0.51388,0.51389 0,0.24168 -0.24114,0.0861 -0.62476,-0.40302 z m -9.98411,-10.27777 c -0.36526,-0.46574 -0.35488,-0.47613 0.11087,-0.11087 0.28264,0.22167 0.51389,0.45292 0.51389,0.51389 0,0.24169 -0.24115,0.0861 -0.62476,-0.40302 z M 74.058764,59.358828 c -0.365263,-0.465747 -0.354876,-0.476134 0.110871,-0.110871 0.282638,0.221662 0.513888,0.452912 0.513888,0.513888 0,0.241687 -0.241143,0.08613 -0.624759,-0.403017 z m 18.007383,-7.85515 c 0.006,-0.484523 0.0718,-0.647188 0.14625,-0.361475 0.07445,0.285714 0.06956,0.682142 -0.01089,0.880952 -0.08044,0.19881 -0.141355,-0.03495 -0.13537,-0.519477 z M 45.39189,4.4561033 c 0.444147,-0.067282 1.170931,-0.067282 1.615078,0 0.444146,0.067283 0.08075,0.1223319 -0.807539,0.1223319 -0.888293,0 -1.251685,-0.055049 -0.807539,-0.1223319 z"
         style="fill:#ccc6f6;fill-opacity:1;stroke-width:0.29365" />
      <path
         id="path86"
         d="m 167.55607,291.94672 c 0.28571,-0.0745 0.68214,-0.0696 0.88095,0.0109 0.19881,0.0804 -0.0349,0.14135 -0.51948,0.13537 -0.48452,-0.006 -0.64718,-0.0718 -0.36147,-0.14625 z M 41.445962,210.02115 c 0.211979,-0.0848 0.465253,-0.0744 0.56283,0.0232 0.09758,0.0976 -0.07586,0.16698 -0.385416,0.15423 -0.342086,-0.0141 -0.411668,-0.0837 -0.177414,-0.17741 z m 24.354635,0.006 c 0.201885,-0.0815 0.532241,-0.0815 0.734126,0 0.201885,0.0815 0.03671,0.14811 -0.367063,0.14811 -0.403769,0 -0.568948,-0.0666 -0.367063,-0.14811 z m -49.750806,-16.103 c 0.0013,-1.13056 0.05438,-1.55707 0.117947,-0.94782 0.06357,0.60926 0.0625,1.53426 -0.0024,2.05555 -0.06487,0.5213 -0.116881,0.0228 -0.115578,-1.10773 z m 37.007833,-1.76191 c -8.81e-4,-1.45357 0.04876,-2.08523 0.110345,-1.4037 0.06158,0.68154 0.06232,1.87082 0.0018,2.64286 -0.06082,0.77203 -0.111215,0.21441 -0.112107,-1.23916 z M 182.70943,158.02538 c -0.36526,-0.46575 -0.35487,-0.47613 0.11087,-0.11087 0.48915,0.38361 0.64471,0.62476 0.40302,0.62476 -0.061,0 -0.29222,-0.23125 -0.51389,-0.51389 z m -10.12138,-10.42459 -0.5594,-0.66072 0.66071,0.55941 c 0.3634,0.30766 0.66072,0.60499 0.66072,0.66071 0,0.23499 -0.23633,0.0615 -0.76203,-0.5594 z M 51.154029,134.82699 c -0.365263,-0.46574 -0.354877,-0.47613 0.11087,-0.11087 0.282639,0.22166 0.513889,0.45291 0.513889,0.51389 0,0.24169 -0.241143,0.0861 -0.624759,-0.40302 z m 1.599699,-25.0337 c 0,-1.0498 0.0533,-1.47926 0.118438,-0.95436 0.06514,0.5249 0.06514,1.38383 0,1.90873 -0.06514,0.5249 -0.118438,0.0954 -0.118438,-0.95437 z m 24.94375,-40.440827 c 0.446366,-0.0675 1.10708,-0.06569 1.468252,0.004 0.361173,0.0697 -0.004,0.124925 -0.811576,0.122722 -0.807539,-0.0023 -1.103042,-0.05924 -0.656676,-0.12673 z M 70.595601,51.479208 c 0.01409,-0.342088 0.08367,-0.411668 0.177411,-0.177414 0.08483,0.211977 0.0744,0.465251 -0.02317,0.562831 -0.09758,0.09758 -0.166981,-0.07586 -0.154231,-0.385417 z m 18.439336,-7.390203 c -0.365262,-0.465748 -0.354876,-0.476134 0.110871,-0.110871 0.282639,0.221662 0.513888,0.452912 0.513888,0.513888 0,0.241686 -0.241142,0.08613 -0.624759,-0.403017 z M 16.362944,21.257682 c 4.59e-4,-2.261108 0.04655,-3.14729 0.102435,-1.969293 0.05588,1.177997 0.05551,3.027995 -8.34e-4,4.111106 -0.05634,1.083112 -0.102059,0.119296 -0.101601,-2.141813 z m 35.732678,2.031082 c 0.0141,-0.342086 0.08367,-0.411668 0.177412,-0.177413 0.08483,0.211978 0.0744,0.465252 -0.02317,0.56283 -0.09758,0.09758 -0.166982,-0.07586 -0.154231,-0.385417 z M 48.328395,4.4561033 c 0.444146,-0.067282 1.170931,-0.067282 1.615077,0 0.444147,0.067283 0.08075,0.1223319 -0.807538,0.1223319 -0.888293,0 -1.251686,-0.055049 -0.807539,-0.1223319 z"
         style="fill:#ccc6f6;fill-opacity:1;stroke-width:0.29365" />
      <path
         id="path84"
         d="m 126.29259,291.95574 c 0.20189,-0.0815 0.53224,-0.0815 0.73413,0 0.20188,0.0815 0.0367,0.14812 -0.36707,0.14812 -0.40377,0 -0.56894,-0.0667 -0.36706,-0.14812 z m 38.91272,-0.0162 c 0.44637,-0.0675 1.10708,-0.0657 1.46826,0.004 0.36117,0.0697 -0.004,0.12492 -0.81158,0.12272 -0.80754,-0.002 -1.10304,-0.0592 -0.65668,-0.12673 z M 42.749036,210.01142 c 0.444146,-0.0673 1.170931,-0.0673 1.615078,0 0.444146,0.0673 0.08075,0.12233 -0.807539,0.12233 -0.888293,0 -1.251685,-0.055 -0.807539,-0.12233 z m 21.436483,0.008 c 0.282639,-0.0739 0.745138,-0.0739 1.027777,0 0.282639,0.0739 0.05139,0.13429 -0.513888,0.13429 -0.565277,0 -0.796527,-0.0604 -0.513889,-0.13429 z M 83.56709,167.78926 c 0.0033,-0.64603 0.0634,-0.87574 0.133634,-0.51047 0.07024,0.36528 0.06757,0.89385 -0.0059,1.1746 -0.0735,0.28076 -0.130968,-0.0181 -0.127708,-0.66413 z m 107.65821,-0.95437 c -0.36527,-0.46575 -0.35488,-0.47613 0.11087,-0.11087 0.28264,0.22166 0.51389,0.45291 0.51389,0.51389 0,0.24169 -0.24115,0.0861 -0.62476,-0.40302 z M 83.56709,164.26545 c 0.0033,-0.64603 0.0634,-0.87574 0.133634,-0.51046 0.07024,0.36527 0.06757,0.89384 -0.0059,1.1746 -0.0735,0.28075 -0.130968,-0.0181 -0.127708,-0.66414 z m 98.26139,-7.12102 c -0.36526,-0.46575 -0.35487,-0.47614 0.11087,-0.11087 0.28264,0.22166 0.51389,0.45291 0.51389,0.51389 0,0.24168 -0.24114,0.0861 -0.62476,-0.40302 z m -10.55618,-10.86507 -0.7119,-0.80754 0.80754,0.7119 c 0.44414,0.39155 0.80753,0.75494 0.80753,0.80754 0,0.2303 -0.23779,0.0429 -0.90317,-0.7119 z M 77.032727,119.37289 c 0,-0.061 0.23125,-0.29223 0.513888,-0.51389 0.465747,-0.36526 0.476134,-0.35488 0.110871,0.11087 -0.383616,0.48915 -0.624759,0.6447 -0.624759,0.40302 z m -36.366291,-9.87325 c 0,-0.40377 0.06665,-0.56895 0.148113,-0.36706 0.08146,0.20188 0.08146,0.53224 0,0.73413 -0.08146,0.20188 -0.148113,0.0367 -0.148113,-0.36707 z m 12.016487,-1.9332 c 0.01409,-0.34208 0.08367,-0.41166 0.177412,-0.17741 0.08483,0.21198 0.0744,0.46525 -0.02317,0.56283 -0.09758,0.0976 -0.166982,-0.0759 -0.154232,-0.38542 z m -12.03967,-0.29365 c 0.01409,-0.34208 0.08367,-0.41166 0.177414,-0.17741 0.08483,0.21198 0.0744,0.46525 -0.02318,0.56283 -0.09758,0.0976 -0.166981,-0.0759 -0.154231,-0.38542 z m 15.466879,-2.66603 c 0.201885,-0.0815 0.532241,-0.0815 0.734126,0 0.201885,0.0815 0.03671,0.14811 -0.367063,0.14811 -0.403769,0 -0.568948,-0.0666 -0.367063,-0.14811 z M 16.372996,31.829098 c 2.07e-4,-3.714678 0.04229,-5.193828 0.09352,-3.287 0.05123,1.906829 0.05106,4.946111 -3.76e-4,6.753961 -0.05143,1.80785 -0.09335,0.247717 -0.09314,-3.466961 z m 35.825307,-10.865066 0.02097,-1.761903 27.015842,-0.0023 27.015835,-0.0023 -26.92845,0.07723 -26.928458,0.07723 -0.108345,1.686964 -0.108345,1.686963 0.02097,-1.761902 z m 85.445347,-11.3789552 -0.5594,-0.6607135 0.66071,0.5594005 c 0.36339,0.3076702 0.66071,0.6049912 0.66071,0.6607132 0,0.234995 -0.23632,0.06151 -0.76202,-0.5594002 z M 51.999025,4.4499403 c 0.847916,-0.059318 2.235415,-0.059318 3.08333,0 0.847916,0.059318 0.154167,0.1078512 -1.541665,0.1078512 -1.695831,0 -2.38958,-0.048533 -1.541665,-0.1078512 z m 65.928565,0.00577 c 0.44637,-0.067497 1.10708,-0.065693 1.46825,0.00401 0.36118,0.069701 -0.004,0.1249261 -0.81157,0.1227216 -0.80754,-0.0022 -1.10305,-0.059233 -0.65668,-0.1267299 z"
         style="fill:#ccc6f6;fill-opacity:1;stroke-width:0.29365" />
      <path
         id="path82"
         d="m 127.48555,291.94963 c 0.21197,-0.0848 0.46525,-0.0744 0.56283,0.0232 0.0976,0.0976 -0.0759,0.16699 -0.38542,0.15424 -0.34209,-0.0141 -0.41167,-0.0837 -0.17741,-0.17742 z m 35.66017,-0.002 c 0.28264,-0.0739 0.74514,-0.0739 1.02778,0 0.28264,0.0739 0.0514,0.1343 -0.51389,0.1343 -0.56528,0 -0.79653,-0.0604 -0.51389,-0.1343 z M 45.39189,210.01939 c 0.282639,-0.0739 0.745138,-0.0739 1.027777,0 0.282638,0.0739 0.05139,0.13429 -0.513888,0.13429 -0.565278,0 -0.796527,-0.0604 -0.513889,-0.13429 z m 16.009209,-0.0104 c 0.527793,-0.0654 1.320649,-0.064 1.761903,0.003 0.441254,0.067 0.0094,0.12047 -0.959623,0.11883 -0.969047,-0.002 -1.330072,-0.0565 -0.80228,-0.12183 z m 22.149185,-43.98164 c 0.006,-0.48452 0.0718,-0.64718 0.14625,-0.36147 0.07445,0.28571 0.06956,0.68214 -0.0109,0.88095 -0.08044,0.19881 -0.141354,-0.035 -0.13537,-0.51948 z m 106.794056,-0.0734 c -0.36526,-0.46575 -0.35487,-0.47613 0.11088,-0.11087 0.28263,0.22166 0.51388,0.45291 0.51388,0.51389 0,0.24168 -0.24114,0.0861 -0.62476,-0.40302 z m -9.39681,-9.69046 c -0.36526,-0.46575 -0.35488,-0.47614 0.11087,-0.11087 0.28264,0.22166 0.51389,0.45291 0.51389,0.51388 0,0.24169 -0.24114,0.0861 -0.62476,-0.40301 z m -10.86507,-11.15872 c -0.36526,-0.46575 -0.35487,-0.47613 0.11087,-0.11087 0.28264,0.22166 0.51389,0.45291 0.51389,0.51389 0,0.24168 -0.24114,0.0861 -0.62476,-0.40302 z M 40.666436,108.32504 c 0,-0.40377 0.06665,-0.56895 0.148113,-0.36706 0.08146,0.20188 0.08146,0.53224 0,0.73412 -0.08146,0.20189 -0.148113,0.0367 -0.148113,-0.36706 z M 87.095843,94.319972 c 0.285713,-0.07445 0.682141,-0.06956 0.880952,0.01089 0.19881,0.08044 -0.03495,0.141354 -0.519477,0.13537 -0.484523,-0.006 -0.647188,-0.0718 -0.361475,-0.14625 z M 16.373371,45.190194 c 0,-3.795432 0.04185,-5.348109 0.093,-3.450393 0.05115,1.897716 0.05115,5.003069 0,6.900785 -0.05115,1.897717 -0.093,0.34504 -0.093,-3.450392 z M 30.874546,4.7594855 c 0.211979,-0.084827 0.465252,-0.074395 0.56283,0.023183 0.09758,0.097578 -0.07586,0.1669815 -0.385416,0.1542309 -0.342086,-0.01409 -0.411669,-0.083673 -0.177414,-0.1774139 z M 57.289993,4.4536141 c 0.527793,-0.065355 1.320649,-0.064007 1.761903,0.003 0.441254,0.067003 0.0094,0.1204759 -0.959624,0.1188277 C 57.123226,4.5737903 56.7622,4.5189694 57.289993,4.4536141 Z M 115.868,4.464011 c 0.28264,-0.073861 0.74514,-0.073861 1.02778,0 0.28263,0.073861 0.0514,0.1342931 -0.51389,0.1342931 -0.56528,0 -0.79653,-0.060432 -0.51389,-0.1342931 z"
         style="fill:#ccc6f6;fill-opacity:1;stroke-width:0.29365" />
      <path
         id="path80"
         d="m 128.3665,291.94963 c 0.21197,-0.0848 0.46525,-0.0744 0.56283,0.0232 0.0976,0.0976 -0.0759,0.16699 -0.38542,0.15424 -0.34209,-0.0141 -0.41167,-0.0837 -0.17741,-0.17742 z m 33.01732,-0.002 c 0.28264,-0.0739 0.74514,-0.0739 1.02778,0 0.28264,0.0739 0.0514,0.1343 -0.51389,0.1343 -0.56528,0 -0.79653,-0.0604 -0.51389,-0.1343 z m -44.95557,-5.9643 c 0,-0.40377 0.0667,-0.56895 0.14812,-0.36706 0.0815,0.20188 0.0815,0.53224 0,0.73412 -0.0815,0.20189 -0.14812,0.0367 -0.14812,-0.36706 z M 48.043604,210.00554 c 0.772036,-0.0607 1.961321,-0.06 2.642854,0.002 0.681536,0.0616 0.04987,0.11124 -1.403699,0.11035 -1.45357,-8.8e-4 -2.011189,-0.0513 -1.239155,-0.11197 z m 8.507004,2.9e-4 c 0.767161,-0.0605 2.022517,-0.0605 2.789679,0 0.767162,0.0605 0.139484,0.10999 -1.39484,0.10999 -1.534323,0 -2.162001,-0.0495 -1.394839,-0.10999 z m 132.775522,-45.07967 -0.5594,-0.66071 0.66071,0.5594 c 0.62091,0.5257 0.79439,0.76203 0.5594,0.76203 -0.0557,0 -0.35304,-0.29732 -0.66071,-0.66072 z m -61.3479,-65.704284 c 0,-32.382303 0.0343,-45.629609 0.0763,-29.438457 0.0419,16.191151 0.0419,42.685761 0,58.876911 -0.0419,16.19116 -0.0763,2.94385 -0.0763,-29.438454 z m 51.95108,56.013824 -0.5594,-0.66071 0.66071,0.5594 c 0.62091,0.5257 0.7944,0.76202 0.55941,0.76202 -0.0557,0 -0.35305,-0.29732 -0.66072,-0.66071 z m -11.14929,-11.45237 -0.86248,-0.95436 0.95437,0.86248 c 0.8896,0.80395 1.08934,1.04625 0.86247,1.04625 -0.0505,0 -0.48,-0.42947 -0.95436,-0.95437 z M 117.8965,110.67424 c 0,-0.40377 0.0667,-0.56894 0.14812,-0.36706 0.0815,0.20189 0.0815,0.53224 0,0.73413 -0.0815,0.20188 -0.14812,0.0367 -0.14812,-0.36707 z m -0.0232,-4.2824 c 0.0141,-0.34209 0.0837,-0.41167 0.17741,-0.17741 0.0848,0.21198 0.0744,0.46525 -0.0232,0.56283 -0.0976,0.0976 -0.16698,-0.0759 -0.15423,-0.38542 z M 16.372996,58.551289 c 2.07e-4,-3.714678 0.04229,-5.193828 0.09352,-3.287 0.05123,1.906828 0.05106,4.94611 -3.76e-4,6.753961 -0.05143,1.80785 -0.09335,0.247717 -0.09314,-3.466961 z M 111.93967,35.279491 c -0.36526,-0.465747 -0.35487,-0.476134 0.11087,-0.110871 0.48915,0.383617 0.64471,0.624759 0.40302,0.624759 -0.061,0 -0.29222,-0.231249 -0.51389,-0.513888 z M 31.755497,4.7594855 c 0.211979,-0.084827 0.465253,-0.074395 0.56283,0.023183 0.09758,0.097578 -0.07586,0.1669815 -0.385416,0.1542309 -0.342086,-0.01409 -0.411668,-0.083673 -0.177414,-0.1774139 z M 60.964224,4.4502252 c 0.772036,-0.060691 1.961321,-0.059958 2.642854,0.00163 0.681536,0.061586 0.04987,0.1112415 -1.403699,0.1103466 -1.45357,-8.95e-4 -2.011189,-0.051283 -1.239155,-0.1119737 z M 114.1061,4.464011 c 0.28264,-0.073861 0.74513,-0.073861 1.02777,0 0.28264,0.073861 0.0514,0.1342931 -0.51388,0.1342931 -0.56528,0 -0.79653,-0.060432 -0.51389,-0.1342931 z"
         style="fill:#ccc6f6;fill-opacity:1;stroke-width:0.29365" />
      <path
         id="path78"
         d="m 125.02525,291.87144 c -4.7313,-0.26964 -7.24664,-0.87114 -7.91619,-1.893 -0.30336,-0.46298 -0.49934,-1.71184 -0.59899,-3.81685 -0.0815,-1.72079 -0.26457,-3.43503 -0.40692,-3.80943 -0.14234,-0.37439 -1.29701,-1.98995 -2.56594,-3.59013 -7.79439,-9.82912 -13.37005,-19.96637 -17.347732,-31.54033 -2.332269,-6.78627 -2.439759,-7.40668 -4.909609,-28.33727 -2.1906,-18.5641 -3.373921,-26.50978 -4.963603,-33.32932 -2.227624,-9.55623 -2.362682,-10.6508 -2.373307,-19.23411 -0.0088,-7.12569 0.03459,-7.772 0.650868,-9.69046 0.7339,-2.28463 2.127979,-4.36633 3.755252,-5.60751 0.814833,-0.6215 1.488056,-0.8494 2.786687,-0.94334 2.30049,-0.1664 5.3276,0.39531 7.312416,1.35689 1.944698,0.94214 5.008878,3.8779 6.757578,6.47436 3.17184,4.70953 6.01331,12.1732 7.8195,20.53939 1.83006,8.4768 2.4204,10.61971 3.56249,12.93173 1.57855,3.19557 6.41463,10.33154 8.94803,13.20344 l 2.15165,2.43914 0.17818,-27.69308 c 0.098,-15.23119 0.19711,-52.70108 0.22024,-83.266426 l 0.0421,-55.573347 -0.80754,-0.0076 c -2.1322,-0.02 -6.8255,-0.62818 -8.14294,-1.055194 -5.5557,-1.800735 -9.59127,-5.841373 -11.42331,-11.437659 -0.26802,-0.818696 -0.64994,-3.131193 -0.84873,-5.138883 l -0.36142,-3.650345 H 79.381619 52.219263 l -0.180286,3.670631 c -0.274716,5.593198 -1.599984,8.713283 -5.239535,12.335453 -3.495166,3.478478 -6.845373,4.845852 -12.713094,5.188804 l -3.156743,0.184503 v 66.026483 66.02649 h 3.3369 c 4.329789,0 5.97749,0.32666 8.905311,1.76553 2.758538,1.35567 5.135289,3.39908 7.011093,6.02778 2.357382,3.30357 2.574598,4.05997 2.71508,9.45457 l 0.124159,4.76774 9.289021,0.0775 9.289024,0.0775 0.489789,3.37698 c 0.717658,4.94808 1.263592,11.11826 1.006507,11.37561 -0.353781,0.35414 -18.087555,0.54641 -29.833565,0.32346 -11.281705,-0.21414 -14.222688,-0.50708 -16.876456,-1.68097 -3.5369,-1.56454 -6.72548,-4.94722 -8.887937,-9.42897 l -1.345145,-2.78785 0.172874,-89.49159 0.172874,-89.49158 1.118519,-2.070861 c 2.250666,-4.166952 5.03951,-6.9409637 8.877726,-8.8305111 1.449213,-0.7134453 2.499069,-0.991761 4.391881,-1.1642824 1.368079,-0.1246943 19.413147,-0.3148799 40.100152,-0.4226346 39.483698,-0.2056633 55.387608,0.027981 59.278388,0.8708568 2.8003,0.6066415 4.7124,1.7316735 7.26703,4.2757287 1.7414,1.7341816 2.53744,2.8344126 3.74457,5.1754386 l 1.53303,2.973061 0.0135,50.618147 0.0135,50.618147 2.19834,1.72008 c 4.96963,3.88846 15.68722,14.52577 41.38912,41.07906 l 7.31864,7.56108 0.9933,3.30398 c 1.80635,6.00843 1.60273,13.16592 -0.56064,19.70707 -1.39068,4.20482 -3.02695,12.18027 -4.64748,22.65243 -2.41173,15.58515 -5.85237,42.25902 -7.95432,61.66659 -1.13931,10.51941 -1.56398,12.52858 -2.93874,13.90333 -0.68459,0.68459 -1.18555,0.87533 -2.69615,1.02655 -2.92195,0.29251 -46.32048,0.4698 -50.91427,0.20799 z M 67.033098,145.06813 c -4.012693,-1.43408 -6.681041,-2.88972 -10.362396,-5.65293 -7.964635,-5.97822 -12.495092,-12.78389 -14.934499,-22.43467 -0.582747,-2.30547 -0.666053,-3.37141 -0.664964,-8.50866 0.0014,-6.66672 0.40669,-8.979533 2.509063,-14.318606 5.807261,-14.747807 19.931222,-24.608078 35.214328,-24.583949 10.372327,0.01639 18.621215,2.987976 25.98806,9.362008 6.13295,5.306422 10.87608,13.042503 12.4643,20.32935 0.99434,4.562097 0.91699,14.534677 -0.14437,18.614007 -1.46855,5.64431 -5.22102,12.39575 -9.44884,17.0003 l -1.53367,1.67034 -3.45838,-1.40976 -3.458394,-1.40976 h -6.75396 c -6.642791,0 -6.784309,0.0128 -8.59773,0.77682 -1.014075,0.42725 -2.58763,1.22011 -3.496796,1.76191 -2.401203,1.43094 -6.487581,5.4271 -8.02053,7.84345 -0.726785,1.14562 -1.519642,2.0795 -1.761903,2.07529 -0.242262,-0.004 -1.834954,-0.50602 -3.539319,-1.11514 z m 30.862158,-24.493 c 0.474891,-1.01482 1.207523,-3.25117 1.628068,-4.96966 l 0.764626,-3.12454 2.24737,-0.19249 c 3.53726,-0.30296 3.27515,-0.0109 3.27515,-3.64997 v -3.1708 l -2.63979,-0.29472 c -1.45189,-0.1621 -2.84169,-0.46228 -3.08844,-0.66707 -0.246759,-0.20479 -0.936985,-1.31229 -1.533835,-2.46111 -1.297668,-2.497758 -4.322059,-5.658256 -6.285136,-6.567991 -2.299439,-1.065611 -4.878506,-1.375174 -6.977311,-0.837485 -4.806042,1.23125 -6.703018,3.227268 -10.733165,11.293556 -1.238941,2.47972 -2.569289,4.82525 -2.956326,5.21229 -0.92933,0.92933 -3.365475,1.00513 -4.238715,0.13189 -1.421888,-1.42188 -1.485079,-4.99297 -0.166318,-9.39893 1.071595,-3.580171 1.052203,-3.671118 -0.941787,-4.417166 -0.923953,-0.345694 -2.328099,-0.778153 -3.120321,-0.961021 -1.420431,-0.327876 -1.451957,-0.319554 -2.273691,0.600124 -0.498372,0.557775 -1.081759,1.79123 -1.451497,3.068893 -1.290414,4.45913 -1.062929,4.16155 -3.377697,4.41862 -2.888413,0.32079 -3.160915,0.66082 -3.312808,4.13373 l -0.120573,2.75677 2.527728,0.13267 c 3.001719,0.15755 3.417695,0.44445 4.994149,3.44444 1.418525,2.69946 3.030848,4.4353 5.224356,5.6246 1.808334,0.98046 1.943299,1.00638 5.239837,1.00638 3.3366,0 3.405006,-0.0137 4.914939,-0.9826 2.541838,-1.6311 4.718381,-4.68244 6.964114,-9.76314 2.890616,-6.53967 5.372635,-8.14227 8.126639,-5.24721 0.885409,0.93076 1.122804,1.44082 1.288743,2.76895 0.302496,2.4211 -0.09186,5.15734 -1.212893,8.4157 -0.550536,1.60016 -1.000976,3.01811 -1.000976,3.15099 0,0.51081 5.077842,2.3548 6.549152,2.37829 0.726758,0.0116 0.923906,-0.20257 1.686408,-1.83199 z M 78.941455,61.823081 C 75.599566,60.961043 73.584011,59.21853 71.950281,55.778988 70.810832,53.380069 70.6236,51.343272 71.309579,48.809063 c 0.802327,-2.964029 2.715274,-5.223088 5.723148,-6.758636 1.438009,-0.73412 1.920923,-0.823933 4.404757,-0.819208 2.39274,0.0046 3.026802,0.11571 4.456189,0.781231 2.219725,1.033499 4.057034,2.779888 5.107075,4.854347 0.771987,1.525138 0.860722,1.987878 0.861007,4.490056 2.85e-4,2.490341 -0.09216,2.978734 -0.861577,4.551582 -1.139924,2.330246 -3.498122,4.621494 -5.54459,5.387176 -2.109391,0.789224 -4.689466,0.998142 -6.514133,0.52747 z"
         style="fill:#ccc6f6;fill-opacity:1;stroke-width:0.29365" />
    </g>
  </g>
</svg>
