<svg xmlns="http://www.w3.org/2000/svg"
 width="80px" height="80px" viewBox="0 0 980.000000 980.000000"
 preserveAspectRatio="xMidYMid meet">

<g transform="translate(0.000000,980.000000) scale(0.100000,-0.100000)"
fill="#f44336" stroke="none">
<path d="M4550 9779 c-1875 -137 -3507 -1327 -4202 -3064 -630 -1576 -391
-3387 626 -4745 145 -194 268 -334 465 -530 271 -270 490 -449 786 -642 1070
-697 2368 -944 3635 -692 1202 239 2250 899 2981 1879 522 700 838 1520 935
2425 22 203 25 727 6 925 -61 620 -213 1167 -471 1700 -111 229 -183 355 -336
585 -777 1169 -2048 1957 -3435 2129 -325 40 -693 51 -990 30z m2349 -2201
c55 -27 625 -586 672 -660 45 -69 48 -114 13 -185 -24 -49 -105 -134 -548
-573 -287 -284 -688 -680 -893 -880 l-372 -365 893 -895 c963 -967 954 -956
943 -1047 -7 -64 -46 -116 -258 -335 -214 -223 -394 -390 -451 -419 -69 -35
-131 -28 -208 24 -25 16 -439 423 -921 904 -482 480 -880 873 -886 873 -5 0
-211 -206 -458 -457 -798 -813 -1252 -1271 -1305 -1312 -91 -72 -152 -74 -247
-10 -26 17 -182 165 -345 328 -289 288 -297 298 -313 354 -21 73 -10 126 41
203 19 29 180 194 356 366 176 172 564 560 861 861 l540 548 -885 887 c-738
739 -889 896 -912 941 -58 122 -44 145 328 517 199 199 315 307 341 319 67 31
134 31 200 1 50 -23 159 -128 933 -906 l875 -881 866 864 c476 475 884 877
906 894 92 69 153 80 234 41z"/>
</g>
</svg>
